<svg xmlns="http://www.w3.org/2000/svg" version="1.1" xmlnsXlink="http://www.w3.org/1999/xlink" xmlnsSvgjs="http://svgjs.dev/svgjs" viewBox="0 0 9.069195052158788 2.946256765891012"><g transform="matrix(1,0,0,1,3.302528554726262,0.4662039444689434)"><rect width="9.069195052158788" height="2.946256765891012" x="-3.3025285547262615" y="-0.46620394446894337" fill="#fffcf7"></rect><g><path d=" M 0.082763671875 0.0205078125 L 0.94189453125 0.0205078125 L 0.94189453125 0.399169921875 L 0.703857421875 0.399169921875 L 0.703857421875 0.2431640625 L 0.44091796875 0.2431640625 L 0.44091796875 0.476806640625 L 0.668701171875 0.476806640625 L 0.668701171875 0.68994140625 L 0.44091796875 0.68994140625 L 0.44091796875 0.93017578125 L 0.55810546875 0.93017578125 L 0.55810546875 1.130859375 L 0.082763671875 1.130859375 L 0.082763671875 0.93017578125 L 0.19775390625 0.93017578125 L 0.19775390625 0.2431640625 L 0.082763671875 0.2431640625 L 0.082763671875 0.0205078125 Z M 1.031982421875 0.0205078125 L 1.50732421875 0.0205078125 L 1.50732421875 0.22119140625 L 1.39013671875 0.22119140625 L 1.39013671875 0.93017578125 L 1.50732421875 0.93017578125 L 1.50732421875 1.130859375 L 1.031982421875 1.130859375 L 1.031982421875 0.93017578125 L 1.14697265625 0.93017578125 L 1.14697265625 0.22119140625 L 1.031982421875 0.22119140625 L 1.031982421875 0.0205078125 Z M 1.822998046875 0.93017578125 L 1.93798828125 0.93017578125 L 1.93798828125 0.214599609375 L 1.80322265625 0.214599609375 L 1.80322265625 0.358154296875 L 1.564453125 0.358154296875 L 1.564453125 0.0205078125 L 2.574462890625 0.0205078125 L 2.574462890625 0.358154296875 L 2.334228515625 0.358154296875 L 2.334228515625 0.214599609375 L 2.18115234375 0.214599609375 L 2.18115234375 0.93017578125 L 2.29833984375 0.93017578125 L 2.29833984375 1.130859375 L 1.822998046875 1.130859375 L 1.822998046875 0.93017578125 Z M 3.497314453125 1.150634765625 Q 3.421875 1.150634765625 3.35302734375 1.130126953125 Q 3.2841796875 1.109619140625 3.2244873046875 1.072265625 Q 3.164794921875 1.034912109375 3.1160888671875 0.9825439453125 Q 3.0673828125 0.93017578125 3.032958984375 0.8660888671875 Q 2.99853515625 0.802001953125 2.9794921875 0.728759765625 Q 2.96044921875 0.655517578125 2.96044921875 0.57568359375 Q 2.96044921875 0.495849609375 2.9794921875 0.4222412109375 Q 2.99853515625 0.3486328125 3.032958984375 0.2845458984375 Q 3.0673828125 0.220458984375 3.1160888671875 0.1680908203125 Q 3.164794921875 0.11572265625 3.2244873046875 0.078369140625 Q 3.2841796875 0.041015625 3.35302734375 0.0205078125 Q 3.421875 0 3.497314453125 0 Q 3.57275390625 0 3.6419677734375 0.0205078125 Q 3.711181640625 0.041015625 3.7708740234375 0.078369140625 Q 3.83056640625 0.11572265625 3.8792724609375 0.1680908203125 Q 3.927978515625 0.220458984375 3.9627685546875 0.2845458984375 Q 3.99755859375 0.3486328125 4.0166015625 0.4222412109375 Q 4.03564453125 0.495849609375 4.03564453125 0.57568359375 Q 4.03564453125 0.65478515625 4.0166015625 0.7283935546875 Q 3.99755859375 0.802001953125 3.9627685546875 0.8660888671875 Q 3.927978515625 0.93017578125 3.8792724609375 0.9825439453125 Q 3.83056640625 1.034912109375 3.7708740234375 1.072265625 Q 3.711181640625 1.109619140625 3.6419677734375 1.130126953125 Q 3.57275390625 1.150634765625 3.497314453125 1.150634765625 Z M 3.497314453125 0.920654296875 Q 3.56103515625 0.920654296875 3.6141357421875 0.8931884765625 Q 3.667236328125 0.86572265625 3.705322265625 0.8184814453125 Q 3.743408203125 0.771240234375 3.7642822265625 0.7086181640625 Q 3.78515625 0.64599609375 3.78515625 0.57568359375 Q 3.78515625 0.504638671875 3.763916015625 0.441650390625 Q 3.74267578125 0.378662109375 3.7042236328125 0.3314208984375 Q 3.665771484375 0.2841796875 3.613037109375 0.2567138671875 Q 3.560302734375 0.229248046875 3.497314453125 0.229248046875 Q 3.434326171875 0.229248046875 3.381591796875 0.2567138671875 Q 3.328857421875 0.2841796875 3.290771484375 0.3314208984375 Q 3.252685546875 0.378662109375 3.2310791015625 0.441650390625 Q 3.20947265625 0.504638671875 3.20947265625 0.57568359375 Q 3.20947265625 0.64599609375 3.2310791015625 0.7086181640625 Q 3.252685546875 0.771240234375 3.290771484375 0.8184814453125 Q 3.328857421875 0.86572265625 3.381591796875 0.8931884765625 Q 3.434326171875 0.920654296875 3.497314453125 0.920654296875 Z M 4.890380859375 0.0205078125 L 5.312255859375 0.0205078125 L 5.312255859375 0.221923828125 L 5.22216796875 0.221923828125 L 5.22216796875 1.130859375 L 4.97900390625 1.130859375 L 4.516845703125 0.4130859375 L 4.516845703125 0.93017578125 L 4.60986328125 0.93017578125 L 4.60986328125 1.130859375 L 4.188720703125 1.130859375 L 4.188720703125 0.93017578125 L 4.2802734375 0.93017578125 L 4.2802734375 0.221923828125 L 4.190185546875 0.221923828125 L 4.190185546875 0.0205078125 L 4.525634765625 0.0205078125 L 4.98486328125 0.747802734375 L 4.98486328125 0.221923828125 L 4.890380859375 0.221923828125 L 4.890380859375 0.0205078125 Z" fill="#431a10" fill-rule="nonzero"></path></g><g><path d=" M 0.13824462890625 1.961358642578125 L 0.1806640625 1.961358642578125 L 0.1806640625 1.601251220703125 L 0.0750732421875 1.601251220703125 L 0.0750732421875 1.673272705078125 L 0.01251220703125 1.673272705078125 L 0.01251220703125 1.551202392578125 L 0.42510986328125 1.551202392578125 L 0.42510986328125 1.673272705078125 L 0.362548828125 1.673272705078125 L 0.362548828125 1.601251220703125 L 0.240478515625 1.601251220703125 L 0.240478515625 1.961358642578125 L 0.2880859375 1.961358642578125 L 0.2880859375 2.013848876953125 L 0.13824462890625 2.013848876953125 L 0.13824462890625 1.961358642578125 Z M 0.809326171875 1.551202392578125 L 0.95947265625 1.551202392578125 L 0.95947265625 1.603692626953125 L 0.91552734375 1.603692626953125 L 0.91552734375 1.961358642578125 L 0.95947265625 1.961358642578125 L 0.95947265625 2.013848876953125 L 0.809326171875 2.013848876953125 L 0.809326171875 1.961358642578125 L 0.855712890625 1.961358642578125 L 0.855712890625 1.795037841796875 L 0.58807373046875 1.795037841796875 L 0.58807373046875 1.961358642578125 L 0.63446044921875 1.961358642578125 L 0.63446044921875 2.013848876953125 L 0.48431396484375 2.013848876953125 L 0.48431396484375 1.961358642578125 L 0.52825927734375 1.961358642578125 L 0.52825927734375 1.603692626953125 L 0.48431396484375 1.603692626953125 L 0.48431396484375 1.551202392578125 L 0.63446044921875 1.551202392578125 L 0.63446044921875 1.603692626953125 L 0.58807373046875 1.603692626953125 L 0.58807373046875 1.743768310546875 L 0.855712890625 1.743768310546875 L 0.855712890625 1.603692626953125 L 0.809326171875 1.603692626953125 L 0.809326171875 1.551202392578125 Z M 1.0498046875 1.551202392578125 L 1.3812255859375 1.551202392578125 L 1.3812255859375 1.682122802734375 L 1.31866455078125 1.682122802734375 L 1.31866455078125 1.603997802734375 L 1.153564453125 1.603997802734375 L 1.153564453125 1.752008056640625 L 1.29241943359375 1.752008056640625 L 1.29241943359375 1.804498291015625 L 1.153564453125 1.804498291015625 L 1.153564453125 1.961358642578125 L 1.31866455078125 1.961358642578125 L 1.31866455078125 1.883233642578125 L 1.3812255859375 1.883233642578125 L 1.3812255859375 2.013848876953125 L 1.0498046875 2.013848876953125 L 1.0498046875 1.961358642578125 L 1.09375 1.961358642578125 L 1.09375 1.603997802734375 L 1.0498046875 1.603997802734375 L 1.0498046875 1.551202392578125 Z M 1.942138671875 2.015679931640625 L 1.942138671875 1.922906494140625 Q 1.9305419921875 1.947015380859375 1.91314697265625 1.9648681640625 Q 1.895751953125 1.982720947265625 1.8743896484375 1.994317626953125 Q 1.85302734375 2.005914306640625 1.828765869140625 2.011712646484375 Q 1.80450439453125 2.017510986328125 1.77947998046875 2.017510986328125 Q 1.73431396484375 2.017510986328125 1.6961669921875 2.00240478515625 Q 1.65802001953125 1.987298583984375 1.627044677734375 1.954339599609375 Q 1.5960693359375 1.921380615234375 1.579742431640625 1.876214599609375 Q 1.56341552734375 1.831048583984375 1.56341552734375 1.781915283203125 Q 1.56341552734375 1.732476806640625 1.579742431640625 1.688531494140625 Q 1.5960693359375 1.644586181640625 1.625518798828125 1.611932373046875 Q 1.65496826171875 1.579278564453125 1.695709228515625 1.560662841796875 Q 1.7364501953125 1.542047119140625 1.7840576171875 1.542047119140625 Q 1.8280029296875 1.542047119140625 1.859588623046875 1.554559326171875 Q 1.89117431640625 1.567071533203125 1.913604736328125 1.58492431640625 Q 1.93603515625 1.602777099609375 1.949462890625 1.618951416015625 L 1.97906494140625 1.618951416015625 L 1.97906494140625 1.673272705078125 L 1.9134521484375 1.673272705078125 Q 1.89300537109375 1.638482666015625 1.859283447265625 1.618341064453125 Q 1.8255615234375 1.598199462890625 1.78375244140625 1.598809814453125 Q 1.7486572265625 1.598809814453125 1.7193603515625 1.613763427734375 Q 1.6900634765625 1.628717041015625 1.669158935546875 1.654046630859375 Q 1.64825439453125 1.679376220703125 1.63665771484375 1.712335205078125 Q 1.62506103515625 1.745294189453125 1.62506103515625 1.781915283203125 Q 1.62506103515625 1.822503662109375 1.63787841796875 1.857293701171875 Q 1.65069580078125 1.892083740234375 1.6705322265625 1.913751220703125 Q 1.69036865234375 1.935418701171875 1.719512939453125 1.949609375 Q 1.7486572265625 1.963800048828125 1.7840576171875 1.963800048828125 Q 1.8426513671875 1.963800048828125 1.88018798828125 1.93526611328125 Q 1.917724609375 1.906732177734375 1.93267822265625 1.846307373046875 L 1.80328369140625 1.846307373046875 L 1.80328369140625 1.793817138671875 L 1.9989013671875 1.793817138671875 L 1.9989013671875 2.015679931640625 L 1.942138671875 2.015679931640625 Z M 2.30194091796875 2.023004150390625 Q 2.2540283203125 2.023004150390625 2.21435546875 2.0051513671875 Q 2.1746826171875 1.987298583984375 2.1435546875 1.954339599609375 Q 2.1124267578125 1.921380615234375 2.09625244140625 1.876214599609375 Q 2.080078125 1.831048583984375 2.080078125 1.782525634765625 Q 2.080078125 1.732476806640625 2.096405029296875 1.688531494140625 Q 2.11273193359375 1.644586181640625 2.142181396484375 1.6120849609375 Q 2.171630859375 1.579583740234375 2.212371826171875 1.5608154296875 Q 2.25311279296875 1.542047119140625 2.30194091796875 1.542047119140625 Q 2.35107421875 1.542047119140625 2.3919677734375 1.5608154296875 Q 2.432861328125 1.579583740234375 2.462158203125 1.6120849609375 Q 2.491455078125 1.644586181640625 2.50762939453125 1.688531494140625 Q 2.5238037109375 1.732476806640625 2.5238037109375 1.782525634765625 Q 2.5238037109375 1.832574462890625 2.507476806640625 1.8763671875 Q 2.49114990234375 1.920159912109375 2.461700439453125 1.952813720703125 Q 2.4322509765625 1.985467529296875 2.391510009765625 2.00423583984375 Q 2.35076904296875 2.023004150390625 2.30194091796875 2.023004150390625 Z M 2.30194091796875 1.966241455078125 Q 2.3382568359375 1.966241455078125 2.367706298828125 1.951287841796875 Q 2.39715576171875 1.936334228515625 2.41790771484375 1.9111572265625 Q 2.43865966796875 1.885980224609375 2.449951171875 1.852716064453125 Q 2.46124267578125 1.819451904296875 2.46124267578125 1.782525634765625 Q 2.46124267578125 1.744683837890625 2.448883056640625 1.70943603515625 Q 2.4365234375 1.674188232421875 2.414398193359375 1.649774169921875 Q 2.39227294921875 1.625360107421875 2.36297607421875 1.6120849609375 Q 2.33367919921875 1.598809814453125 2.30194091796875 1.598809814453125 Q 2.265625 1.598809814453125 2.23602294921875 1.613763427734375 Q 2.2064208984375 1.628717041015625 2.1856689453125 1.65389404296875 Q 2.1649169921875 1.679071044921875 2.15362548828125 1.71248779296875 Q 2.142333984375 1.745904541015625 2.142333984375 1.782525634765625 Q 2.142333984375 1.825250244140625 2.15484619140625 1.8586669921875 Q 2.1673583984375 1.892083740234375 2.187957763671875 1.914208984375 Q 2.20855712890625 1.936334228515625 2.237091064453125 1.951287841796875 Q 2.265625 1.966241455078125 2.30194091796875 1.966241455078125 Z" fill="#3e7742" fill-rule="nonzero"></path></g><g clip-path="url(&quot;#SvgjsClipPath1003&quot;)"><g clip-path="url(&quot;#SvgjsClipPath1000&quot;)"><path d=" M -0.7262230119926265 1.477397050739147 L -1.6874960934664076 0.5161239692653663 L -1.361077621310813 -0.049146822036417515 L -0.3999999999999999 0.9119307992743955 L -0.7262230119926265 1.477397050739147 Z" fill="url(#gradient-359f717d-fcc9-4366-ab8a-c2e284a74a66_0)" transform="matrix(1,0,0,1,0,0)" fill-rule="evenodd"></path></g><g clip-path="url(&quot;#SvgjsClipPath1000&quot;)"><path d=" M -2.5590529601381413 0.5364518262139782 L -2.232634487982547 -0.02901442525077307 L -1.6874960934664076 0.5161239692653663 L -2.5590529601381413 0.5364518262139782 Z" fill="url(#gradient-359f717d-fcc9-4366-ab8a-c2e284a74a66_1)" transform="matrix(1,0,0,1,0,0)" fill-rule="evenodd"></path></g><g clip-path="url(&quot;#SvgjsClipPath1000&quot;)"><path d=" M -1.0528369443111887 2.042667842040931 L -1.5979753388273281 1.4975294475247913 L -0.7262230119926265 1.477397050739147 L -1.0528369443111887 2.042667842040931 Z" fill="url(#gradient-359f717d-fcc9-4366-ab8a-c2e284a74a66_2)" transform="matrix(1,0,0,1,0,0)" fill-rule="evenodd"></path></g><g clip-path="url(&quot;#SvgjsClipPath1000&quot;)"><path d=" M -1.9243938109829228 2.0629956989895426 L -2.885471432293736 1.101722617515762 L -2.5590529601381413 0.5364518262139782 L -1.5979753388273281 1.4975294475247913 L -1.9243938109829228 2.0629956989895426 Z" fill="url(#gradient-359f717d-fcc9-4366-ab8a-c2e284a74a66_3)" transform="matrix(1,0,0,1,0,0)" fill-rule="evenodd"></path></g></g></g><defs><clipPath id="SvgjsClipPath1003"><path d=" M -2.885471432293736 -0.049146822036417515 h 2.485471432293736 v 2.11214252102596 h -2.485471432293736 Z"></path></clipPath><clipPath id="SvgjsClipPath1000"><path d=" M -2.885471432293736 -0.049146822036417515 L -0.3999999999999999 -0.049146822036417515 L -0.3999999999999999 2.0629956989895426 L -2.885471432293736 2.0629956989895426 Z"></path></clipPath><linearGradient id="gradient-359f717d-fcc9-4366-ab8a-c2e284a74a66_0" x1="0" x2="1" y1="0" y2="1"><stop stop-color="#cab64a" offset="0"></stop><stop stop-color="#588344" offset="1"></stop></linearGradient><linearGradient id="gradient-359f717d-fcc9-4366-ab8a-c2e284a74a66_1" x1="0" x2="1" y1="0" y2="1"><stop stop-color="#eac44c" offset="0"></stop><stop stop-color="#b0aa48" offset="1"></stop></linearGradient><linearGradient id="gradient-359f717d-fcc9-4366-ab8a-c2e284a74a66_2" x1="0" x2="1" y1="0" y2="1"><stop stop-color="#849746" offset="0"></stop><stop stop-color="#4b7c43" offset="1"></stop></linearGradient><linearGradient id="gradient-359f717d-fcc9-4366-ab8a-c2e284a74a66_3" x1="0" x2="1" y1="0" y2="1"><stop stop-color="#ddbe4b" offset="0"></stop><stop stop-color="#6b8b45" offset="1"></stop></linearGradient></defs></svg>