<svg xmlns="http://www.w3.org/2000/svg" version="1.1" xmlnsXlink="http://www.w3.org/1999/xlink" xmlnsSvgjs="http://svgjs.dev/svgjs" viewBox="0 0 5.931435603160815 7.308798159558186"><g transform="matrix(1,0,0,1,0.5480849280452511,4.8280819021672325)"><g><path d=" M 0.073080322265625 0.018108398437500006 L 0.83169287109375 0.018108398437500006 L 0.83169287109375 0.352467041015625 L 0.621506103515625 0.352467041015625 L 0.621506103515625 0.21471386718749996 L 0.38933056640625 0.21471386718749996 L 0.38933056640625 0.42102026367187495 L 0.590463134765625 0.42102026367187495 L 0.590463134765625 0.60921826171875 L 0.38933056640625 0.60921826171875 L 0.38933056640625 0.82134521484375 L 0.49280712890625 0.82134521484375 L 0.49280712890625 0.998548828125 L 0.073080322265625 0.998548828125 L 0.073080322265625 0.82134521484375 L 0.17461669921875 0.82134521484375 L 0.17461669921875 0.21471386718749996 L 0.073080322265625 0.21471386718749996 L 0.073080322265625 0.018108398437500006 Z M 0.9335526123046876 0.018108398437500006 L 1.3532794189453126 0.018108398437500006 L 1.3532794189453126 0.19531201171875 L 1.2498028564453125 0.19531201171875 L 1.2498028564453125 0.82134521484375 L 1.3532794189453126 0.82134521484375 L 1.3532794189453126 0.998548828125 L 0.9335526123046876 0.998548828125 L 0.9335526123046876 0.82134521484375 L 1.0350889892578126 0.82134521484375 L 1.0350889892578126 0.19531201171875 L 0.9335526123046876 0.19531201171875 L 0.9335526123046876 0.018108398437500006 Z M 1.6543315429687502 0.82134521484375 L 1.7558679199218752 0.82134521484375 L 1.7558679199218752 0.18949145507812504 L 1.6368698730468751 0.18949145507812504 L 1.6368698730468751 0.31625024414062497 L 1.426036376953125 0.31625024414062497 L 1.426036376953125 0.018108398437500006 L 2.317875 0.018108398437500006 L 2.317875 0.31625024414062497 L 2.105748046875 0.31625024414062497 L 2.105748046875 0.18949145507812504 L 1.9705817871093751 0.18949145507812504 L 1.9705817871093751 0.82134521484375 L 2.074058349609375 0.82134521484375 L 2.074058349609375 0.998548828125 L 1.6543315429687502 0.998548828125 L 1.6543315429687502 0.82134521484375 Z M 3.177377197265625 1.016010498046875 Q 3.11076416015625 1.016010498046875 3.0499716796875003 0.997902099609375 Q 2.98917919921875 0.979793701171875 2.936470825195313 0.946810546875 Q 2.8837624511718754 0.9138273925781251 2.8407550048828125 0.8675863037109375 Q 2.79774755859375 0.82134521484375 2.767351318359375 0.7647564697265625 Q 2.7369550781250003 0.7081677246093749 2.7201401367187503 0.643494873046875 Q 2.7033251953125004 0.578822021484375 2.7033251953125004 0.50832861328125 Q 2.7033251953125004 0.437835205078125 2.7201401367187503 0.37283898925781256 Q 2.7369550781250003 0.3078427734375 2.767351318359375 0.2512540283203125 Q 2.79774755859375 0.19466528320312504 2.8407550048828125 0.14842419433593745 Q 2.8837624511718754 0.10218310546874998 2.936470825195313 0.06919995117187505 Q 2.98917919921875 0.03621679687500001 3.0499716796875003 0.018108398437500006 Q 3.11076416015625 0 3.177377197265625 0 Q 3.2439902343750004 0 3.305106079101563 0.018108398437500006 Q 3.3662219238281255 0.03621679687500001 3.4189302978515625 0.06919995117187505 Q 3.471638671875 0.10218310546874998 3.5146461181640625 0.14842419433593745 Q 3.5576535644531253 0.19466528320312504 3.5883731689453127 0.2512540283203125 Q 3.6190927734375 0.3078427734375 3.63590771484375 0.37283898925781256 Q 3.6527226562500004 0.437835205078125 3.6527226562500004 0.50832861328125 Q 3.6527226562500004 0.57817529296875 3.63590771484375 0.6431715087890625 Q 3.6190927734375 0.7081677246093749 3.5883731689453127 0.7647564697265625 Q 3.5576535644531253 0.82134521484375 3.5146461181640625 0.8675863037109375 Q 3.471638671875 0.9138273925781251 3.4189302978515625 0.946810546875 Q 3.3662219238281255 0.979793701171875 3.305106079101563 0.997902099609375 Q 3.2439902343750004 1.016010498046875 3.177377197265625 1.016010498046875 Z M 3.177377197265625 0.812937744140625 Q 3.233642578125 0.812937744140625 3.280530395507813 0.7886854248046875 Q 3.3274182128906253 0.76443310546875 3.3610480957031252 0.7227191162109374 Q 3.394677978515625 0.681005126953125 3.4131097412109375 0.6257098388671876 Q 3.4315415039062502 0.57041455078125 3.4315415039062502 0.50832861328125 Q 3.4315415039062502 0.445595947265625 3.4127863769531253 0.38997729492187505 Q 3.3940312500000003 0.334358642578125 3.3600780029296877 0.29264465332031253 Q 3.326124755859375 0.2509306640625 3.2795603027343754 0.22667834472656245 Q 3.232995849609375 0.20242602539062504 3.177377197265625 0.20242602539062504 Q 3.1217585449218754 0.20242602539062504 3.075194091796875 0.22667834472656245 Q 3.028629638671875 0.2509306640625 2.994999755859375 0.29264465332031253 Q 2.961369873046875 0.334358642578125 2.9422913818359375 0.38997729492187505 Q 2.9232128906250003 0.445595947265625 2.9232128906250003 0.50832861328125 Q 2.9232128906250003 0.57041455078125 2.9422913818359375 0.6257098388671876 Q 2.961369873046875 0.681005126953125 2.994999755859375 0.7227191162109374 Q 3.028629638671875 0.76443310546875 3.075194091796875 0.7886854248046875 Q 3.1217585449218754 0.812937744140625 3.177377197265625 0.812937744140625 Z M 4.429766967773438 0.018108398437500006 L 4.802282592773437 0.018108398437500006 L 4.802282592773437 0.19595874023437498 L 4.722734985351563 0.19595874023437498 L 4.722734985351563 0.998548828125 L 4.508021118164063 0.998548828125 L 4.099935424804688 0.3647548828125 L 4.099935424804688 0.82134521484375 L 4.1820699462890625 0.82134521484375 L 4.1820699462890625 0.998548828125 L 3.8102010498046877 0.998548828125 L 3.8102010498046877 0.82134521484375 L 3.8910421142578127 0.82134521484375 L 3.8910421142578127 0.19595874023437498 L 3.811494506835938 0.19595874023437498 L 3.811494506835938 0.018108398437500006 L 4.107696166992188 0.018108398437500006 L 4.513194946289063 0.660309814453125 L 4.513194946289063 0.19595874023437498 L 4.429766967773438 0.19595874023437498 L 4.429766967773438 0.018108398437500006 Z" fill="#431a10" fill-rule="nonzero"></path></g><g><path d=" M 1.062174957275391 1.8603211486816407 L 1.1119329528808595 1.8603211486816407 L 1.1119329528808595 1.4379151428222656 L 0.9880749206542971 1.4379151428222656 L 0.9880749206542971 1.5223963439941406 L 0.9146908264160158 1.5223963439941406 L 0.9146908264160158 1.3792078674316406 L 1.3986678771972658 1.3792078674316406 L 1.3986678771972658 1.5223963439941406 L 1.3252837829589845 1.5223963439941406 L 1.3252837829589845 1.4379151428222656 L 1.1820953063964845 1.4379151428222656 L 1.1820953063964845 1.8603211486816407 L 1.2379388122558597 1.8603211486816407 L 1.2379388122558597 1.9218921936035156 L 1.062174957275391 1.9218921936035156 L 1.062174957275391 1.8603211486816407 Z M 1.8592336120605468 1.3792078674316406 L 2.035355438232422 1.3792078674316406 L 2.035355438232422 1.4407789123535155 L 1.983807586669922 1.4407789123535155 L 1.983807586669922 1.8603211486816407 L 2.035355438232422 1.8603211486816407 L 2.035355438232422 1.9218921936035156 L 1.8592336120605468 1.9218921936035156 L 1.8592336120605468 1.8603211486816407 L 1.913645233154297 1.8603211486816407 L 1.913645233154297 1.6652268493652342 L 1.5997044982910156 1.6652268493652342 L 1.5997044982910156 1.8603211486816407 L 1.6541161193847658 1.8603211486816407 L 1.6541161193847658 1.9218921936035156 L 1.4779942932128907 1.9218921936035156 L 1.4779942932128907 1.8603211486816407 L 1.5295421447753907 1.8603211486816407 L 1.5295421447753907 1.4407789123535155 L 1.4779942932128907 1.4407789123535155 L 1.4779942932128907 1.3792078674316406 L 1.6541161193847658 1.3792078674316406 L 1.6541161193847658 1.4407789123535155 L 1.5997044982910156 1.4407789123535155 L 1.5997044982910156 1.6050876892089843 L 1.913645233154297 1.6050876892089843 L 1.913645233154297 1.4407789123535155 L 1.8592336120605468 1.4407789123535155 L 1.8592336120605468 1.3792078674316406 Z M 2.1511949157714843 1.3792078674316406 L 2.5399516296386717 1.3792078674316406 L 2.5399516296386717 1.5327775085449218 L 2.4665675354003906 1.5327775085449218 L 2.4665675354003906 1.4411368835449219 L 2.272905120849609 1.4411368835449219 L 2.272905120849609 1.6147529113769532 L 2.435782012939453 1.6147529113769532 L 2.435782012939453 1.6763239562988281 L 2.272905120849609 1.6763239562988281 L 2.272905120849609 1.8603211486816407 L 2.4665675354003906 1.8603211486816407 L 2.4665675354003906 1.7686805236816405 L 2.5399516296386717 1.7686805236816405 L 2.5399516296386717 1.9218921936035156 L 2.1511949157714843 1.9218921936035156 L 2.1511949157714843 1.8603211486816407 L 2.202742767333984 1.8603211486816407 L 2.202742767333984 1.4411368835449219 L 2.1511949157714843 1.4411368835449219 L 2.1511949157714843 1.3792078674316406 Z M 3.2176626892089844 1.924040020751953 L 3.2176626892089844 1.815216778564453 Q 3.2040597839355467 1.8434965026855468 3.1836554260253904 1.8644378173828124 Q 3.163251068115234 1.8853791320800781 3.1381930847167965 1.8989820373535156 Q 3.1131351013183592 1.912584942626953 3.0846763916015623 1.9193863952636718 Q 3.0562176818847653 1.9261878479003907 3.0268640441894528 1.9261878479003907 Q 2.973884307861328 1.9261878479003907 2.9291379089355467 1.9084682739257812 Q 2.8843915100097655 1.8907486999511718 2.848057434082031 1.852087811279297 Q 2.8117233581542966 1.8134269226074218 2.7925718994140625 1.7604471862792967 Q 2.773420440673828 1.7074674499511717 2.773420440673828 1.6498340881347655 Q 2.773420440673828 1.5918427551269532 2.7925718994140625 1.540294903564453 Q 2.8117233581542966 1.488747052001953 2.846267578125 1.4504441345214842 Q 2.880811798095703 1.4121412170410155 2.9286009521484373 1.3903049743652343 Q 2.9763901062011717 1.368468731689453 3.032233612060547 1.368468731689453 Q 3.0837814636230467 1.368468731689453 3.1208314819335934 1.3831455505371093 Q 3.1578815002441405 1.3978223693847656 3.1841923828125 1.4187636840820312 Q 3.210503265380859 1.439704998779297 3.226253997802734 1.458677471923828 L 3.2609772033691407 1.458677471923828 L 3.2609772033691407 1.5223963439941406 L 3.1840133972167965 1.5223963439941406 Q 3.160029327392578 1.481587628173828 3.1204735107421873 1.4579615295410155 Q 3.080917694091797 1.434335430908203 3.0318756408691403 1.4350513732910155 Q 2.9907089538574216 1.4350513732910155 2.9563437194824216 1.4525919616699219 Q 2.9219784851074215 1.470132550048828 2.8974574584960937 1.499844158935547 Q 2.8729364318847654 1.5295557678222655 2.859333526611328 1.5682166564941407 Q 2.8457306213378906 1.6068775451660156 2.8457306213378906 1.6498340881347655 Q 2.8457306213378906 1.6974442565917969 2.8607654113769527 1.7382529724121094 Q 2.8758002014160153 1.7790616882324217 2.8990683288574215 1.8044776428222655 Q 2.922336456298828 1.8298935974121093 2.956522705078125 1.8465392578125 Q 2.9907089538574216 1.8631849182128906 3.032233612060547 1.8631849182128906 Q 3.1009640808105465 1.8631849182128906 3.1449945373535155 1.8297146118164063 Q 3.189024993896484 1.7962443054199217 3.2065655822753905 1.7253660095214842 L 3.0547857971191403 1.7253660095214842 L 3.0547857971191403 1.6637949645996093 L 3.284245330810547 1.6637949645996093 L 3.284245330810547 1.924040020751953 L 3.2176626892089844 1.924040020751953 Z M 3.6495907287597658 1.9326313293457031 Q 3.5933892517089845 1.9326313293457031 3.5468529968261717 1.9116900146484375 Q 3.5003167419433594 1.8907486999511718 3.4638036804199217 1.852087811279297 Q 3.4272906188964845 1.8134269226074218 3.408318145751953 1.7604471862792967 Q 3.389345672607422 1.7074674499511717 3.389345672607422 1.6505500305175782 Q 3.389345672607422 1.5918427551269532 3.4084971313476564 1.540294903564453 Q 3.4276485900878906 1.488747052001953 3.462192810058594 1.4506231201171875 Q 3.496737030029297 1.4124991882324218 3.5445261840820312 1.3904839599609375 Q 3.5923153381347657 1.368468731689453 3.6495907287597658 1.368468731689453 Q 3.707224090576172 1.368468731689453 3.7551922302246092 1.3904839599609375 Q 3.803160369873047 1.4124991882324218 3.837525604248047 1.4506231201171875 Q 3.871890838623047 1.488747052001953 3.8908633117675784 1.540294903564453 Q 3.9098357849121093 1.5918427551269532 3.9098357849121093 1.6505500305175782 Q 3.9098357849121093 1.709257305908203 3.890684326171875 1.760626171875 Q 3.8715328674316405 1.8119950378417968 3.8369886474609376 1.8502979553222656 Q 3.8024444274902343 1.8886008728027344 3.7546552734375 1.9106161010742186 Q 3.706866119384766 1.9326313293457031 3.6495907287597658 1.9326313293457031 Z M 3.6495907287597658 1.8660486877441407 Q 3.6921893005371094 1.8660486877441407 3.7267335205078127 1.8485080993652343 Q 3.7612777404785156 1.8309675109863282 3.7856197814941406 1.8014348876953126 Q 3.8099618225097656 1.7719022644042968 3.823206756591797 1.7328834045410155 Q 3.836451690673828 1.6938645446777343 3.836451690673828 1.6505500305175782 Q 3.836451690673828 1.606161602783203 3.821953857421875 1.5648159301757811 Q 3.807456024169922 1.5234702575683594 3.7815031127929686 1.4948325622558594 Q 3.755550201416016 1.4661948669433593 3.7211849670410158 1.4506231201171875 Q 3.6868197326660157 1.4350513732910155 3.6495907287597658 1.4350513732910155 Q 3.6069921569824217 1.4350513732910155 3.5722689514160155 1.4525919616699219 Q 3.5375457458496093 1.470132550048828 3.5132037048339844 1.4996651733398436 Q 3.4888616638183594 1.5291977966308594 3.4756167297363283 1.5683956420898437 Q 3.4623717956542968 1.607593487548828 3.4623717956542968 1.6505500305175782 Q 3.4623717956542968 1.7006659973144531 3.4770486145019532 1.7398638427734374 Q 3.4917254333496093 1.7790616882324217 3.5158884887695314 1.805014599609375 Q 3.540051544189453 1.8309675109863282 3.5735218505859376 1.8485080993652343 Q 3.6069921569824217 1.8660486877441407 3.6495907287597658 1.8660486877441407 Z" fill="#3e7742" fill-rule="nonzero"></path></g><g clip-path="url(&quot;#SvgjsClipPath1002&quot;)"><g clip-path="url(&quot;#SvgjsClipPath1000&quot;)"><path d=" M 4.166351715998415 -1.3673302734100918 L 2.3322294581109535 -3.2014525312975533 L 2.9550403915538292 -4.279996974121981 L 4.7887897087625815 -2.4462476569132283 L 4.166351715998415 -1.3673302734100918 Z" fill="url(#gradient-359f717d-fcc9-4366-ab8a-c2e284a74a66_0)" transform="matrix(1,0,0,1,0,0)" fill-rule="evenodd"></path></g><g clip-path="url(&quot;#SvgjsClipPath1000&quot;)"><path d=" M 0.6692869717506066 -3.1626667007118887 L 1.2920979051934818 -4.241584084215026 L 2.3322294581109535 -3.2014525312975533 L 0.6692869717506066 -3.1626667007118887 Z" fill="url(#gradient-359f717d-fcc9-4366-ab8a-c2e284a74a66_1)" transform="matrix(1,0,0,1,0,0)" fill-rule="evenodd"></path></g><g clip-path="url(&quot;#SvgjsClipPath1000&quot;)"><path d=" M 3.5431678418768313 -0.28878583058566365 L 2.5030362889593594 -1.328917383503136 L 4.166351715998415 -1.3673302734100918 L 3.5431678418768313 -0.28878583058566365 Z" fill="url(#gradient-359f717d-fcc9-4366-ab8a-c2e284a74a66_2)" transform="matrix(1,0,0,1,0,0)" fill-rule="evenodd"></path></g><g clip-path="url(&quot;#SvgjsClipPath1000&quot;)"><path d=" M 1.8802253555164838 -0.25 L 0.04647603830773139 -2.084122257887461 L 0.6692869717506066 -3.1626667007118887 L 2.5030362889593594 -1.328917383503136 L 1.8802253555164838 -0.25 Z" fill="url(#gradient-359f717d-fcc9-4366-ab8a-c2e284a74a66_3)" transform="matrix(1,0,0,1,0,0)" fill-rule="evenodd"></path></g></g></g><defs><clipPath id="SvgjsClipPath1002"><path d=" M 0.04647603830773139 -4.279996974121981 h 4.74231367045485 v 4.029996974121981 h -4.74231367045485 Z"></path></clipPath><clipPath id="SvgjsClipPath1000"><path d=" M 0.04647603830773139 -4.279996974121981 L 4.7887897087625815 -4.279996974121981 L 4.7887897087625815 -0.25 L 0.04647603830773139 -0.25 Z"></path></clipPath><linearGradient id="gradient-359f717d-fcc9-4366-ab8a-c2e284a74a66_0" x1="0" x2="1" y1="0" y2="1"><stop stop-color="#cab64a" offset="0"></stop><stop stop-color="#588344" offset="1"></stop></linearGradient><linearGradient id="gradient-359f717d-fcc9-4366-ab8a-c2e284a74a66_1" x1="0" x2="1" y1="0" y2="1"><stop stop-color="#eac44c" offset="0"></stop><stop stop-color="#b0aa48" offset="1"></stop></linearGradient><linearGradient id="gradient-359f717d-fcc9-4366-ab8a-c2e284a74a66_2" x1="0" x2="1" y1="0" y2="1"><stop stop-color="#849746" offset="0"></stop><stop stop-color="#4b7c43" offset="1"></stop></linearGradient><linearGradient id="gradient-359f717d-fcc9-4366-ab8a-c2e284a74a66_3" x1="0" x2="1" y1="0" y2="1"><stop stop-color="#ddbe4b" offset="0"></stop><stop stop-color="#6b8b45" offset="1"></stop></linearGradient></defs></svg>